<svg width="1147" height="241" viewBox="0 0 1147 241" fill="none" xmlns="http://www.w3.org/2000/svg">
<path d="M0 239L491 239" stroke="#D9D9D9" stroke-width="3"/>
<path d="M56.96 194.773C57.9192 195.359 58.9131 195.908 59.9424 196.419L59.5 238.516L56.5 238.484L56.96 194.773ZM293.5 238.013L290.5 237.974L291.218 181.966C292.279 180.816 293.295 179.624 294.265 178.387L293.5 238.013ZM439.5 237.504H436.5V187.513C437.539 186.624 438.539 185.7 439.5 184.74V237.504ZM100.409 67C109.748 67 118.483 68.3832 126.611 71.1504C134.913 73.9176 141.571 78.3286 146.587 84.3818C151.775 90.4351 154.37 98.4777 154.37 108.509V199.308H128.946V177.516C124.623 186.163 118.569 192.389 110.786 196.194C103.003 199.999 94.4419 201.902 85.1025 201.902C77.4927 201.902 70.3154 200.605 63.5703 198.011C62.316 197.528 61.107 196.997 59.9424 196.419L60.4951 143.922C70.8162 143.123 79.4135 136.18 82.6357 126.745C86.3981 126.074 90.1604 125.529 93.9229 125.111C100.149 124.247 105.856 123.295 111.045 122.258C116.233 121.047 120.385 119.318 123.498 117.069C126.784 114.821 128.427 111.621 128.427 107.471C128.427 101.071 125.746 96.2285 120.385 92.9424C115.023 89.4835 108.365 87.754 100.409 87.7539C91.9346 87.7539 85.0158 89.9165 79.6543 94.2402C77.8783 95.6611 76.4063 97.3352 75.2383 99.2627C70.7593 95.3623 64.9056 93 58.5 93C54.6321 93 50.966 93.8623 47.6816 95.4033C48.9282 91.9728 50.5919 88.9038 52.6738 86.1973C58.0353 79.4522 64.9541 74.6101 73.4287 71.6699C81.9033 68.5568 90.8969 67 100.409 67ZM242.047 67C253.461 67 263.752 69.2485 272.918 73.7451C282.257 78.2419 289.868 84.5549 295.748 92.6836C299.915 98.4435 302.864 104.898 304.6 112.048C300.999 110.104 296.879 109 292.5 109C286.915 109 281.75 110.797 277.55 113.842C275.513 107.521 271.895 102.457 266.692 98.6504C259.601 93.4619 251.386 90.8672 242.047 90.8672C234.783 90.8672 228.21 92.6834 222.33 96.3154C216.45 99.9473 211.78 105.049 208.321 111.621C205.035 118.02 203.392 125.631 203.392 134.451C203.392 143.099 205.035 150.708 208.321 157.28C211.78 163.852 216.45 168.955 222.33 172.587C228.21 176.219 234.783 178.035 242.047 178.035C251.559 178.035 259.86 175.181 266.951 169.474C271.717 165.729 275.179 160.906 277.339 155.003C281.577 158.142 286.821 160 292.5 160C296.975 160 301.18 158.845 304.836 156.82C303.193 163.409 300.511 169.444 296.786 174.922C295.984 176.113 295.142 177.267 294.265 178.387L294.5 160.038L291.5 159.999L291.218 181.966C286.406 187.176 280.654 191.488 273.956 194.897C264.444 199.567 253.807 201.902 242.047 201.902C229.767 201.902 218.698 199.048 208.84 193.341C199.155 187.633 191.458 179.678 185.751 169.474C180.217 159.27 177.449 147.595 177.449 134.451C177.449 121.134 180.217 109.46 185.751 99.4287C191.458 89.2246 199.155 81.2689 208.84 75.5615C218.698 69.8541 229.767 67 242.047 67ZM393.181 67C405.46 67 416.356 69.8542 425.868 75.5615C435.553 81.2689 443.164 89.2246 448.698 99.4287C453.956 108.959 456.714 119.972 456.977 132.468C452.308 127.27 445.536 124 438 124C426.065 124 416.047 132.199 413.268 143.271H354.785C356.342 154.513 360.579 163.334 367.497 169.733C374.415 175.96 383.322 179.072 394.218 179.072C402.174 179.072 408.746 177.43 413.935 174.144C416.522 172.505 418.786 170.543 420.729 168.259C425.271 172.443 431.337 175 438 175C441.743 175 445.296 174.192 448.498 172.744C446.028 177.218 443.028 181.216 439.5 184.74V175.504H436.5V187.513C434.946 188.842 433.305 190.094 431.575 191.266C420.852 198.356 408.054 201.902 393.181 201.902C380.901 201.902 369.919 199.048 360.233 193.341C350.721 187.633 343.198 179.678 337.663 169.474C332.129 159.27 329.361 147.595 329.361 134.451C329.361 121.134 332.129 109.46 337.663 99.4287C343.198 89.2246 350.721 81.2689 360.233 75.5615C369.919 69.8541 380.901 67 393.181 67ZM48.5947 142.004C51.3481 143.166 54.3479 143.856 57.4941 143.979L56.96 194.773C53.1683 192.458 49.9233 189.56 47.2266 186.077C43.0757 180.543 41 173.538 41 165.063C41 157.108 42.5568 150.709 45.6699 145.866C46.5732 144.488 47.5477 143.2 48.5947 142.004ZM128.946 136.526C124.45 138.775 119.52 140.418 114.158 141.456C108.797 142.494 103.349 143.445 97.8145 144.31C92.2802 145.174 87.1783 146.298 82.5088 147.682C78.0121 148.892 74.3795 150.795 71.6123 153.39C68.8453 155.811 67.4619 159.183 67.4619 163.507C67.4619 169.041 69.6236 173.192 73.9473 175.959C78.271 178.726 83.7189 180.11 90.291 180.11C97.0361 180.11 103.349 178.813 109.229 176.219C115.11 173.624 119.866 169.819 123.498 164.804C127.13 159.615 128.946 153.303 128.946 145.866V136.526ZM456.977 132.468C461.032 136.983 463.5 142.953 463.5 149.5C463.5 159.841 457.344 168.742 448.498 172.744C449.347 171.207 450.133 169.614 450.856 167.965C456.685 163.899 460.5 157.146 460.5 149.5C460.5 145 459.178 140.81 456.902 137.294C456.966 136.346 457 135.399 457 134.451C457 133.786 456.99 133.125 456.977 132.468ZM453.627 160.394C452.837 163.037 451.912 165.56 450.856 167.965C447.212 170.507 442.781 172 438 172C432.023 172 426.592 169.669 422.562 165.867C423.723 164.188 424.739 162.364 425.608 160.394H453.627ZM416.374 143.271C415.805 145.25 415.5 147.339 415.5 149.5C415.5 155.95 418.215 161.765 422.562 165.867C421.987 166.7 421.376 167.498 420.729 168.259C415.67 163.599 412.5 156.92 412.5 149.5C412.5 147.351 412.767 145.265 413.268 143.271H416.374ZM306.644 144.828C306.48 147.534 306.167 150.162 305.712 152.712C302.002 155.408 297.437 157 292.5 157C287.119 157 282.18 155.111 278.309 151.96C278.926 149.72 279.379 147.344 279.663 144.828H306.644ZM304.6 112.048C312.579 116.357 318 124.795 318 134.5C318 144.108 312.685 152.473 304.836 156.82C305.172 155.474 305.463 154.105 305.712 152.712C311.34 148.622 315 141.989 315 134.5C315 126.89 311.221 120.163 305.438 116.091C305.201 114.719 304.921 113.372 304.6 112.048ZM277.55 113.842C277.875 114.85 278.16 115.89 278.404 116.962C273.28 121.086 270 127.41 270 134.5C270 141.546 273.239 147.834 278.309 151.96C278.021 153.004 277.699 154.019 277.339 155.003C271.067 150.357 267 142.904 267 134.5C267 126.002 271.158 118.475 277.55 113.842ZM60.5 143.516L60.4951 143.922C59.8367 143.973 59.1715 144 58.5 144C58.1631 144 57.8278 143.991 57.4941 143.979L57.5 143.484L60.5 143.516ZM438 127C445.927 127 452.894 131.1 456.902 137.294C456.861 137.903 456.808 138.512 456.74 139.121C456.74 140.505 456.653 141.888 456.48 143.271H416.374C419.075 133.875 427.735 127 438 127ZM47.6816 95.4033C47.204 96.7179 46.7886 98.0859 46.4336 99.5068C40.1614 103.5 36 110.514 36 118.5C36 128.243 42.1928 136.538 50.8564 139.667C50.0685 140.403 49.3147 141.182 48.5947 142.004C39.4317 138.138 33 129.07 33 118.5C33 108.285 39.0074 99.4733 47.6816 95.4033ZM79.1689 127.399C75.7199 135.399 67.765 141 58.5 141C55.8163 141 53.2429 140.529 50.8564 139.667C53.0913 137.58 55.6002 135.842 58.3818 134.451C63.5703 131.684 69.191 129.608 75.2441 128.225C76.5523 127.934 77.8608 127.66 79.1689 127.399ZM75.2383 99.2627C80.6066 103.938 84 110.822 84 118.5C84 121.386 83.5191 124.159 82.6357 126.745C81.4801 126.951 80.3246 127.17 79.1689 127.399C80.3459 124.67 81 121.661 81 118.5C81 112.001 78.2441 106.146 73.8379 102.039C74.2424 101.062 74.709 100.136 75.2383 99.2627ZM393.181 89.8301C382.804 89.8301 374.242 92.9427 367.497 99.1689C360.752 105.222 356.602 113.697 355.045 124.593H431.316C429.76 113.697 425.608 105.222 418.863 99.1689C412.118 92.9429 403.558 89.8301 393.181 89.8301ZM292.5 112C297.316 112 301.779 113.514 305.438 116.091C305.729 117.765 305.959 119.475 306.125 121.221H279.145C278.964 119.749 278.716 118.329 278.404 116.962C282.261 113.858 287.164 112 292.5 112ZM58.5 96C64.4275 96 69.8191 98.2928 73.8379 102.039C72.5274 105.206 71.8721 108.919 71.8721 113.178H44.8916C44.8916 108.176 45.4063 103.619 46.4336 99.5068C49.9207 97.2868 54.0599 96 58.5 96Z" fill="#D9D9D9"/>
<path d="M436.5 174.5V175.5H439.5V174.5H436.5Z" fill="black"/>
<path d="M74 102.297C63.5 92.5001 50.1667 96.3335 46.5 99.5002L46 98.2966L47.5 95.5001C60 89.5 71 95.5002 75.5 99.2967C74.7 100.097 74.1667 101.63 74 102.297Z" fill="black"/>
<path d="M36.0007 118C36.0007 128.5 43.0007 137 51.0007 139.5L48.5015 142C40.0015 138.5 35.7881 131.561 33.9999 125C32.501 119.5 32.5015 113.5 35.5007 107.5C38.1047 102.29 44.1673 97.1667 47.5007 95.5C47.1007 96.7 46.6673 98.6667 46.5007 99.5C44.5007 100.7 42.6673 102.333 42.0007 103C38.9998 106.5 36.0007 111.691 36.0007 118Z" fill="#D9D9D9"/>
<path d="M291.5 160L291 182L294 180L294.5 178V160C298 159.5 302.5 158 305 157L305.5 153C293.5 161 282 155 278.5 152C278.5 152.4 277.833 154.167 277.5 155C283.5 159 289.333 160 291.5 160Z" fill="black"/>
<path d="M291 182L290.5 237.5H293.5L294.5 178C293.7 179.2 291.833 181.167 291 182Z" fill="#D9D9D9"/>
<path d="M57 194.5L56.5 237.5H59.5L60 196.5C58 195.5 57.5 195 57 194.5Z" fill="#D9D9D9"/>
<path d="M57.5 144L57 194.5C58 196 58.5 196 60 197L60.5 144C72.1 143.2 80.5 133.5 82.5 127L79 127.5C77 134.7 62.5 145.5 51 139.5L48.5 142C50.9 143.2 55 144 57.5 144Z" fill="black"/>
<path d="M74 102C82.8 110 81 122.333 79 127.5L82.5 127C86.5 112.2 79.5 102.5 75.5 99.5L75 99L74.5 100.5L74 102Z" fill="#D9D9D9"/>
<path d="M278.499 152L277.499 155C259.499 139.4 268 120.5 277.499 114L278.499 117C262.499 132 273.499 149 278.499 152Z" fill="#D9D9D9"/>
<path d="M305.5 116C322 129.5 313 147.5 305.5 153L304.5 157L305.5 156.5C328 140.5 316 118.5 304.5 112V114L305.5 116Z" fill="#D9D9D9"/>
<path d="M682 239H1147" stroke="#D9D9D9" stroke-width="3"/>
<path d="M1065.85 195.385C1069.63 198.28 1074.37 200.001 1079.5 200.001C1081.36 200.001 1083.16 199.775 1084.88 199.352H1092.65C1089.07 201.504 1084.93 202.808 1080.5 202.979V238.505H1077.5V202.923C1071.97 202.494 1066.94 200.302 1062.96 196.909C1063.45 196.672 1063.94 196.426 1064.43 196.172C1064.91 195.916 1065.38 195.653 1065.85 195.385ZM937.259 91.7764C933.606 101.125 924.596 107.789 914.003 107.994L915 237.493L912 237.517L911.002 107.879C908.445 107.63 905.999 107.003 903.72 106.056C904.336 105.202 904.991 104.385 905.687 103.606C908.12 104.508 910.753 105.001 913.5 105.001C922.597 105.001 930.432 99.6014 933.978 91.833C934.9 91.7942 935.839 91.7734 936.794 91.7734C936.949 91.7734 937.104 91.7751 937.259 91.7764ZM724.282 174.21C724.625 175.012 724.984 175.797 725.359 176.564C725.748 177.326 726.15 178.07 726.563 178.798C726.521 179.36 726.5 179.928 726.5 180.501C726.5 192.927 736.574 203.001 749 203.001C752.265 203.001 755.366 202.304 758.166 201.054C759.784 201.352 761.433 201.581 763.113 201.738C759.462 204.169 755.148 205.685 750.5 205.955V237.505H747.5V205.955C734.115 205.179 723.5 194.081 723.5 180.501C723.5 178.33 723.772 176.222 724.282 174.21ZM834.789 199.351H808.292V178.154C804.229 185.926 798.754 191.844 791.865 195.906C784.976 199.969 777.292 202.001 768.813 202.001C766.876 202.001 764.976 201.912 763.113 201.738C769.977 197.169 774.5 189.365 774.5 180.501C774.5 179.861 774.475 179.227 774.429 178.599C775.278 178.654 776.144 178.684 777.026 178.684C786.742 178.684 794.338 175.328 799.813 168.615C805.466 161.903 808.292 151.923 808.292 138.675V66.8701H834.789V199.351ZM1110 199.352H1092.65C1100.05 194.89 1105 186.775 1105 177.501C1105 163.656 1093.97 152.389 1080.21 152.012C1082.41 146.369 1083.5 140.069 1083.5 133.11C1083.5 124.102 1081.74 116.33 1078.21 109.794C1074.67 103.082 1069.9 97.8706 1063.9 94.1611C1057.89 90.4517 1051 88.5967 1043.23 88.5967C1035.63 88.5967 1028.74 90.4517 1022.56 94.1611C1016.56 97.8706 1011.79 103.082 1008.25 109.794C1004.72 116.33 1002.96 124.102 1002.96 133.11C1002.96 141.942 1004.72 149.715 1008.25 156.428C1011.79 163.14 1016.56 168.351 1022.56 172.061C1028.74 175.77 1035.63 177.625 1043.23 177.625C1047.04 177.625 1050.64 177.177 1054.03 176.284C1054.01 176.687 1054 177.093 1054 177.501C1054 185.273 1057.48 192.232 1062.96 196.909C1055.94 200.303 1048.3 202.001 1040.05 202.001C1028.04 202.001 1017.18 199.087 1007.46 193.258C997.921 187.429 990.325 179.303 984.673 168.881C979.197 158.459 976.459 146.535 976.459 133.11C976.459 119.509 979.197 107.586 984.673 97.3408C990.325 86.919 997.921 78.793 1007.46 72.9639C1017.18 67.1349 1028.04 64.2207 1040.05 64.2207C1048.88 64.2207 1057.01 66.2517 1064.43 70.3145C1072.02 74.2006 1078.38 79.6766 1083.5 86.7422V0.628906H1110V199.352ZM748.209 158.017C749.598 162.166 751.519 165.699 753.975 168.615C758.486 173.972 764.291 177.189 771.39 178.271C771.462 179.004 771.5 179.748 771.5 180.501C771.5 189.663 766.023 197.544 758.166 201.054C752.912 200.084 747.982 198.369 743.377 195.906C736.45 192.04 730.846 186.337 726.563 178.798C727.414 167.427 736.717 158.414 748.209 158.017ZM1079.5 155.001C1091.93 155.001 1102 165.075 1102 177.501C1102 188.072 1094.71 196.939 1084.88 199.352H1083.5V179.479C1078.7 186.1 1072.82 191.401 1065.85 195.385C1060.47 191.273 1057 184.793 1057 177.501C1057 176.769 1057.04 176.045 1057.1 175.33C1059.48 174.477 1061.75 173.389 1063.9 172.061C1069.9 168.351 1074.67 163.14 1078.21 156.428C1078.45 155.96 1078.69 155.487 1078.92 155.009C1079.11 155.004 1079.3 155.001 1079.5 155.001ZM893.354 66.8672C889.999 71.1849 888 76.6093 888 82.501C888 93.1191 894.49 102.22 903.72 106.056C898.921 112.706 896.52 121.634 896.52 132.843V199.349H870.023V66.8672H893.354ZM749 155.001C762.443 155.001 773.456 165.404 774.429 178.599C773.391 178.531 772.378 178.421 771.39 178.271C770.27 166.891 760.674 158.001 749 158.001C748.735 158.001 748.472 158.008 748.209 158.017C747.89 157.062 747.599 156.075 747.336 155.056C747.886 155.02 748.441 155.001 749 155.001ZM1079.5 152.001C1079.74 152.001 1079.98 152.005 1080.21 152.012C1079.82 153.032 1079.38 154.031 1078.92 155.009C1067.49 155.3 1058.18 164.113 1057.1 175.33C1056.1 175.691 1055.07 176.009 1054.03 176.284C1054.66 162.766 1065.82 152.001 1079.5 152.001ZM745.496 138.675C745.496 144.844 746.11 150.304 747.336 155.056C736.165 155.775 726.952 163.687 724.282 174.21C720.761 165.965 719 155.886 719 143.974V66.8701H745.496V138.675ZM928.586 65.8076C933.139 69.9249 936 75.8788 936 82.501C936 85.8303 935.275 88.99 933.978 91.833C922.607 92.3114 913.653 95.7356 907.118 102.107C906.623 102.59 906.147 103.091 905.687 103.606C897.112 100.431 891 92.18 891 82.501C891 76.8522 893.082 71.6894 896.52 67.7383V90.7139C901.289 82.0585 907.56 75.5225 915.332 71.1064C919.464 68.7194 923.882 66.9539 928.586 65.8076ZM942.358 64.2178C945.891 64.2178 948.717 64.4828 950.837 65.0127V93.8936C946.726 92.5233 942.2 91.818 937.259 91.7764C938.382 88.9017 939 85.7737 939 82.501C939 75.7609 936.384 69.6326 932.113 65.0732C935.397 64.5035 938.812 64.2178 942.358 64.2178ZM913.5 57.001C920.843 57.001 927.46 60.1059 932.113 65.0732C930.92 65.2803 929.744 65.5253 928.586 65.8076C924.595 62.1988 919.304 60.001 913.5 60.001C906.722 60.001 900.645 62.9976 896.52 67.7383V66.8672H893.354C898.02 60.8641 905.308 57.001 913.5 57.001Z" fill="#D9D9D9"/>
<path d="M436.5 187.5V237.5L439.5 238.127V184.5L436.5 187.5Z" fill="#D9D9D9"/>
</svg>
