<svg width="922" height="871" viewBox="0 0 922 871" fill="none" xmlns="http://www.w3.org/2000/svg">
<path d="M52 0V871" stroke="#D9D9D9" stroke-width="3"/>
<path d="M910 169L53 169" stroke="#D9D9D9" stroke-width="3"/>
<path d="M482 871L482 1.99999" stroke="#D9D9D9" stroke-width="3"/>
<path d="M91 37V863" stroke="#D9D9D9" stroke-width="2"/>
<path d="M521 37V863" stroke="#D9D9D9" stroke-width="2"/>
<circle cx="11" cy="860" r="11" fill="#D9D9D9"/>
<path d="M11 863V36.9997L513 37" stroke="#D9D9D9" stroke-width="2"/>
<circle cx="91" cy="37" r="11" fill="#D9D9D9"/>
<circle cx="91" cy="234" r="8.6" fill="black" stroke="#D9D9D9" stroke-width="0.8"/>
<circle cx="521" cy="234" r="8.6" fill="black" stroke="#D9D9D9" stroke-width="0.8"/>
<circle cx="91" cy="442" r="8" fill="black" stroke="#D9D9D9" stroke-width="2"/>
<circle cx="521" cy="442" r="8" fill="black" stroke="#D9D9D9" stroke-width="2"/>
<circle cx="91" cy="303" r="8.5" fill="black" stroke="#D9D9D9"/>
<circle cx="521" cy="303" r="8.5" fill="black" stroke="#D9D9D9"/>
<circle cx="91" cy="512" r="7.5" fill="black" stroke="#D9D9D9" stroke-width="3"/>
<circle cx="521" cy="512" r="7.5" fill="black" stroke="#D9D9D9" stroke-width="3"/>
<circle cx="91" cy="372" r="8.25" fill="black" stroke="#D9D9D9" stroke-width="1.5"/>
<circle cx="521" cy="372" r="8.25" fill="black" stroke="#D9D9D9" stroke-width="1.5"/>
<circle cx="91" cy="582" r="7" fill="black" stroke="#D9D9D9" stroke-width="4"/>
<circle cx="521" cy="582" r="7" fill="black" stroke="#D9D9D9" stroke-width="4"/>
<circle cx="91" cy="652" r="6.5" fill="black" stroke="#D9D9D9" stroke-width="5"/>
<circle cx="521" cy="652" r="6.5" fill="black" stroke="#D9D9D9" stroke-width="5"/>
<circle cx="91" cy="722" r="6" fill="black" stroke="#D9D9D9" stroke-width="6"/>
<circle cx="521" cy="722" r="6" fill="black" stroke="#D9D9D9" stroke-width="6"/>
<circle cx="91" cy="862" r="9" fill="#D9D9D9"/>
<circle cx="521" cy="862" r="9" fill="#D9D9D9"/>
<circle cx="91" cy="792" r="5.5" fill="black" stroke="#D9D9D9" stroke-width="7"/>
<circle cx="521" cy="792" r="5.5" fill="black" stroke="#D9D9D9" stroke-width="7"/>
<circle cx="521" cy="37" r="11" fill="#D9D9D9"/>
<path d="M910.088 168.547L884 168.547L910.088 141.547L910.088 168.547Z" fill="#D9D9D9"/>
</svg>
