<svg width="922" height="872" viewBox="0 0 922 872" fill="none" xmlns="http://www.w3.org/2000/svg">
<path d="M51 2L910 1.99992" stroke="#D9D9D9" stroke-width="3"/>
<path d="M52 1V872" stroke="#D9D9D9" stroke-width="3"/>
<path d="M910 170L53 170" stroke="#D9D9D9" stroke-width="3"/>
<path d="M482 872L482 2.99999" stroke="#D9D9D9" stroke-width="3"/>
<path d="M91 38V864" stroke="#D9D9D9" stroke-width="2"/>
<path d="M521 38V864" stroke="#D9D9D9" stroke-width="2"/>
<circle cx="11" cy="861" r="11" fill="#D9D9D9"/>
<path d="M11 864V37.9997L513 38" stroke="#D9D9D9" stroke-width="2"/>
<circle cx="91" cy="38" r="11" fill="#D9D9D9"/>
<circle cx="91" cy="235" r="8.6" fill="black" stroke="#D9D9D9" stroke-width="0.8"/>
<circle cx="521" cy="235" r="8.6" fill="black" stroke="#D9D9D9" stroke-width="0.8"/>
<circle cx="91" cy="443" r="8" fill="black" stroke="#D9D9D9" stroke-width="2"/>
<circle cx="521" cy="443" r="8" fill="black" stroke="#D9D9D9" stroke-width="2"/>
<circle cx="91" cy="304" r="8.5" fill="black" stroke="#D9D9D9"/>
<circle cx="521" cy="304" r="8.5" fill="black" stroke="#D9D9D9"/>
<circle cx="91" cy="513" r="7.5" fill="black" stroke="#D9D9D9" stroke-width="3"/>
<circle cx="521" cy="513" r="7.5" fill="black" stroke="#D9D9D9" stroke-width="3"/>
<circle cx="91" cy="373" r="8.25" fill="black" stroke="#D9D9D9" stroke-width="1.5"/>
<circle cx="521" cy="373" r="8.25" fill="black" stroke="#D9D9D9" stroke-width="1.5"/>
<circle cx="91" cy="583" r="7" fill="black" stroke="#D9D9D9" stroke-width="4"/>
<circle cx="521" cy="583" r="7" fill="black" stroke="#D9D9D9" stroke-width="4"/>
<circle cx="91" cy="653" r="6.5" fill="black" stroke="#D9D9D9" stroke-width="5"/>
<circle cx="521" cy="653" r="6.5" fill="black" stroke="#D9D9D9" stroke-width="5"/>
<circle cx="91" cy="723" r="6" fill="black" stroke="#D9D9D9" stroke-width="6"/>
<circle cx="521" cy="723" r="6" fill="black" stroke="#D9D9D9" stroke-width="6"/>
<circle cx="91" cy="863" r="9" fill="#D9D9D9"/>
<circle cx="521" cy="863" r="9" fill="#D9D9D9"/>
<circle cx="91" cy="793" r="5.5" fill="black" stroke="#D9D9D9" stroke-width="7"/>
<circle cx="521" cy="793" r="5.5" fill="black" stroke="#D9D9D9" stroke-width="7"/>
<circle cx="521" cy="38" r="11" fill="#D9D9D9"/>
<path d="M910.088 169.547L884 169.547L910.088 142.547L910.088 169.547Z" fill="#D9D9D9"/>
</svg>
