<svg width="295" height="119" viewBox="0 0 295 119" fill="none" xmlns="http://www.w3.org/2000/svg">
<path d="M14.622 31.6696H8.69232V56.5006H0V0H8.69232V22.6401H14.622V0H23.3143V56.567H14.622V31.6696Z" fill="#D9D9D9"/>
<path d="M38.4166 58.0175H36.7513C29.8902 58.0175 26.2266 54.2787 26.2266 47.2685V35.852H34.7529V45.7997C34.7529 48.4035 35.6189 49.8055 37.5506 49.8055C39.6156 49.8055 40.3484 48.4035 40.3484 44.9318V43.6633C40.3484 39.5907 39.9487 38.1887 36.8179 34.1161L31.4223 26.9724C27.7586 22.2322 26.6928 18.5602 26.6928 12.8854V11.0827C26.6928 3.53846 30.4897 0 37.2842 0H38.8829C45.9438 0 48.7415 3.13788 48.7415 9.88099V19.2279H40.415V11.016C40.415 9.07983 40.0153 7.6778 37.9503 7.6778C35.8853 7.6778 35.4191 8.9463 35.4191 11.6836V12.7518C35.4191 15.9565 36.0186 17.6923 38.9495 21.4978L44.4117 28.5748C48.2752 33.6488 49.5409 36.5196 49.5409 42.9289V44.7315C49.5409 53.077 45.9438 58.0175 38.4166 58.0175Z" fill="#D9D9D9"/>
<path d="M70.9256 0V8.24243H59.7429V23.0655H68.4857V31.6403H59.7429V47.9922H71.4V56.567H51V0H70.9256Z" fill="#D9D9D9"/>
<path d="M95.4228 45.9441H89.0953L87.951 56.567H80.1426L87.1432 0H97.4422L104.914 56.567H96.4998L95.4228 45.9441ZM94.4804 37.5122L92.1917 16.5983L89.9704 37.5122H94.4804Z" fill="#D9D9D9"/>
<path d="M114.917 56.5007H106.373V0H120.282C125.978 0 128.826 2.45367 128.826 8.75363V18.7673C128.826 23.4756 126.641 25.2662 125.117 25.9956C127.038 26.8577 128.826 28.383 128.826 32.163V51.9913C128.826 54.246 129.29 55.307 129.687 56.1691V56.567H121.209C120.812 55.9702 120.348 54.9755 120.348 51.9249V34.8156C120.348 32.2956 119.885 31.2345 117.169 31.2345H114.983V56.5007H114.917ZM114.917 23.2104H117.169C119.554 23.2104 120.282 21.6851 120.282 19.1651V11.2736C120.282 8.81995 119.752 7.62627 117.169 7.62627H114.917V23.2104Z" fill="#D9D9D9"/>
<path d="M145.655 8.17596V56.567H137.03V8.17596H129.686V0H153V8.24243H145.655V8.17596Z" fill="#D9D9D9"/>
<path d="M175.565 45.9441H169.238L168.094 56.567H160.285L167.286 0H177.585L185.057 56.567H176.642L175.565 45.9441ZM174.623 37.5122L172.334 16.5983L170.113 37.5122H174.623Z" fill="#D9D9D9"/>
<path d="M194.399 0L201.879 30.3417V0H209.83V56.567H202.755L194.399 24.0343V56.567H186.516V0H194.399Z" fill="#D9D9D9"/>
<path d="M212.742 0H226.229C233.752 0 236.056 4.18277 236.056 10.8885V45.3466C236.056 52.2515 233.413 56.567 226.229 56.567H212.81V0H212.742ZM221.553 48.3343H223.654C226.297 48.3343 227.043 46.94 227.043 43.9523V12.0836C227.043 8.8303 226.161 7.70161 223.993 7.70161H221.485V48.3343H221.553Z" fill="#D9D9D9"/>
<path d="M0 60.9189H13.4584C21.0033 60.9189 23.3143 65.1017 23.3143 71.8074V106.266C23.3143 113.17 20.6634 117.486 13.4584 117.486H0V60.9189ZM8.76835 109.32H10.8755C13.5264 109.32 14.2741 107.925 14.2741 104.938V73.0689C14.2741 69.8156 13.3904 68.687 11.2153 68.687H8.70038V109.32H8.76835Z" fill="#D9D9D9"/>
<path d="M46.1537 60.9189V69.1614H35.008V83.9845H43.7219V92.5593H35.008V108.911H46.6266V117.486H26.2266V60.9189H46.1537Z" fill="#D9D9D9"/>
<path d="M60.3104 118.936H58.6404C51.76 118.936 48.0859 115.189 48.0859 108.163V96.7198H56.6364V106.691C56.6364 109.3 57.5048 110.706 59.442 110.706C61.5128 110.706 62.2476 109.3 62.2476 105.821V104.549C62.2476 100.467 61.8468 99.0619 58.7072 94.9799L53.2296 87.9536C49.5555 83.2025 48.4867 79.522 48.4867 73.834V72.0272C48.4867 64.4656 52.2944 60.9189 59.108 60.9189H60.7112C67.8589 60.9189 70.5977 64.0641 70.5977 70.8227V80.1912H62.2476V71.9603C62.2476 70.0197 61.8468 68.6145 59.776 68.6145C57.7052 68.6145 57.2376 69.8859 57.2376 72.6295V73.7002C57.2376 76.9122 57.8388 78.6521 60.778 82.4664L66.2557 89.5596C70.1301 94.6454 71.3993 97.5228 71.3993 103.947V105.754C71.4661 113.985 67.8589 118.936 60.3104 118.936Z" fill="#D9D9D9"/>
<path d="M83.0573 117.486H74.3145V60.9189H83.0573V117.486Z" fill="#D9D9D9"/>
<path d="M92.8933 118.936C87.7574 118.936 84.5137 114.412 84.5137 108.557V73.0946C84.5137 66.7739 87.0141 60.9189 95.2585 60.9189H96.948C106.341 60.9189 107.423 66.907 107.423 73.6269V79.4153H98.9077V73.0281C98.9077 70.4998 98.2995 69.1691 96.137 69.1691C94.3124 69.1691 93.4339 70.5663 93.4339 73.0281V106.162C93.4339 108.823 94.5152 110.22 96.2722 110.22C98.5023 110.22 99.5159 108.69 99.5159 106.561V92.3894H95.5964V83.6735H107.828V118.138H102.895C102.827 117.805 102.151 115.011 101.408 112.549C100.8 114.479 97.8265 118.87 93.4339 118.87H92.8933V118.936Z" fill="#D9D9D9"/>
<path d="M118.626 60.9189L126.105 91.2606V60.9189H134.056V117.486H126.981L118.626 84.9533V117.486H110.742V60.9189H118.626Z" fill="#D9D9D9"/>
<path d="M156.482 118.936H154.812C147.932 118.936 144.258 115.189 144.258 108.163V96.7198H152.808V106.691C152.808 109.3 153.677 110.706 155.614 110.706C157.685 110.706 158.42 109.3 158.42 105.821V104.549C158.42 100.467 158.019 99.0619 154.879 94.9799L149.401 87.9536C145.727 83.2025 144.659 79.522 144.659 73.834V72.0272C144.659 64.4656 148.466 60.9189 155.28 60.9189H156.883C163.964 60.9189 166.77 64.0641 166.77 70.8227V80.1912H158.42V71.9603C158.42 70.0197 158.019 68.6145 155.948 68.6145C153.877 68.6145 153.409 69.8859 153.409 72.6295V73.7002C153.409 76.9122 154.011 78.6521 156.95 82.4664L162.428 89.5596C166.302 94.6454 167.571 97.5228 167.571 103.947V105.754C167.638 113.985 164.031 118.936 156.482 118.936Z" fill="#D9D9D9"/>
<path d="M185.168 106.747V93.5579H193.801V106.68C193.801 112.808 191.761 118.936 183.265 118.936H181.294C172.39 118.936 170.486 112.675 170.486 106.947V72.3093C170.486 66.5142 173.069 60.9189 181.022 60.9189H183.061C192.713 60.9189 193.801 67.1803 193.801 72.7089V82.8337H185.168V72.8422C185.168 70.3776 184.421 69.112 182.177 69.112C180.002 69.112 179.459 70.311 179.459 72.8422V106.547C179.459 109.078 180.342 110.41 182.245 110.41C184.421 110.61 185.168 109.078 185.168 106.747Z" fill="#D9D9D9"/>
<path d="M209.88 92.6549H203.95V117.486H195.258V60.9189H203.95V83.559H209.88V60.9189H218.572V117.486H209.88V92.6549Z" fill="#D9D9D9"/>
<path d="M244.801 105.599C244.801 113.535 242.166 118.936 233.934 118.936H232.485C224.318 118.936 221.486 113.535 221.486 105.599V73.9895C221.486 66.1205 224.45 60.9189 232.419 60.9189H233.868C242.166 60.9189 244.801 66.1205 244.801 73.9229V105.599ZM236.107 73.5227C236.107 70.5218 235.119 69.1881 233.143 69.1881C230.97 69.1881 230.114 70.6552 230.114 73.5227V106.199C230.114 108.667 230.773 110.534 233.209 110.534C235.449 110.534 236.107 108.6 236.107 106.199V73.5227Z" fill="#D9D9D9"/>
<path d="M272.484 105.599C272.484 113.535 269.85 118.936 261.617 118.936H260.168C252.002 118.936 249.17 113.535 249.17 105.599V73.9895C249.17 66.1205 252.134 60.9189 260.103 60.9189H261.552C269.85 60.9189 272.484 66.1205 272.484 73.9229V105.599ZM263.791 73.5227C263.791 70.5218 262.803 69.1881 260.827 69.1881C258.654 69.1881 257.798 70.6552 257.798 73.5227V106.199C257.798 108.667 258.456 110.534 260.893 110.534C263.132 110.534 263.791 108.6 263.791 106.199V73.5227Z" fill="#D9D9D9"/>
<path d="M283.915 60.9189V108.722H294.343V117.486H275.4V60.9189H283.915Z" fill="#D9D9D9"/>
</svg>
