<svg width="409" height="846" viewBox="0 0 409 846" fill="none" xmlns="http://www.w3.org/2000/svg">
<path d="M66 611L167 611" stroke="#D9D9D9" stroke-width="3" stroke-linecap="round"/>
<path d="M75 611L341 611" stroke="#D9D9D9" stroke-opacity="0.5" stroke-width="3" stroke-linecap="round"/>
<circle cx="168" cy="611" r="4" fill="#D9D9D9"/>
<path d="M204 693C224.435 693 241 709.565 241 730C241 750.435 224.435 767 204 767C183.565 767 167 750.435 167 730C167 709.565 183.565 693 204 693ZM195 745.589L222 730L195 714.411V745.589Z" fill="#D9D9D9" fill-opacity="0.5"/>
<path d="M111.5 712C112.328 712 113 712.672 113 713.5V728.845L138 714.411V745.589L113 731.154V749H110V713.5C110 712.672 110.672 712 111.5 712ZM296.5 712C297.328 712 298 712.672 298 713.5V749H295V731.154L270 745.589V714.411L295 728.845V713.5C295 712.672 295.672 712 296.5 712Z" fill="#D9D9D9" fill-opacity="0.5"/>
<path d="M396.791 91.6689C396.791 58.9238 386.263 38.8484 373.19 27.0291C360.098 15.1936 344.389 11.5778 333.945 11.8762L333.935 11.8768H333.924C270.756 11.373 130.715 10.668 75.8417 11.8768C48.5882 12.4771 32.021 23.794 22.3467 37.6489C12.6507 51.5351 9.84611 68.0212 10.2453 78.9523V237.347L10.3817 266.754C11.08 422.332 11.9833 698.576 10.8498 757.522C10.2492 788.76 22.7759 808.27 38.6362 820.004C54.5281 831.761 73.8123 835.741 86.7106 835.791H313.377C345.259 835.791 365.771 824.769 378.479 811.05C391.197 797.319 396.139 780.844 396.791 769.884V91.6689ZM398 769.92L397.999 769.938C397.337 781.142 392.304 797.904 379.365 811.871C366.41 825.858 345.567 837 313.377 837H86.7059C73.6128 836.949 54.0611 832.919 37.9172 820.976C21.7417 809.009 9.03269 789.127 9.64089 757.498C10.8496 694.641 9.74157 384.551 9.03644 237.353V78.9747C8.63434 67.842 11.4842 51.0945 21.3557 36.957C31.2555 22.7789 48.1847 11.2764 75.8152 10.6678C130.706 9.45869 270.747 10.1635 333.917 10.6672C344.628 10.3626 360.65 14.0626 374.001 26.1324C387.372 38.2205 398 58.646 398 91.6689V769.92Z" fill="#D9D9D9"/>
<path d="M407.792 83.5338C407.792 50.0373 396.722 29.4972 382.969 17.4012C369.196 5.28764 352.666 1.58528 341.672 1.89086H341.651C275.225 1.37551 127.961 0.654305 70.2566 1.89086C41.5809 2.50536 24.1496 14.0908 13.9734 28.2688C3.77555 42.4769 0.826636 59.3429 1.24644 70.5244L1.24703 70.5356V232.564L1.39039 262.647C2.12468 421.805 3.07381 704.404 1.88184 764.707C1.25022 796.662 14.422 816.625 31.1081 828.634C47.8268 840.667 68.1149 844.741 81.6868 844.792H320.044C353.584 844.792 375.163 833.511 388.532 819.471C401.91 805.421 407.107 788.564 407.792 777.353V83.5338ZM409 777.391L408.999 777.409C408.302 788.873 403.01 806.018 389.408 820.304C375.789 834.607 353.881 846 320.044 846H81.6821C67.9221 845.948 47.3712 841.828 30.4019 829.615C13.4 817.378 0.0345571 797.042 0.67416 764.684C1.94522 700.38 0.780254 383.155 0.0387552 232.57V70.5698L0.0216459 70.032C-0.293159 58.6451 2.76817 41.8086 12.9917 27.5647C23.3991 13.0647 41.1917 1.30545 70.2307 0.683155C127.951 -0.553763 275.216 0.167269 341.644 0.682566C352.896 0.37107 369.734 4.1527 383.767 16.4948C397.822 28.8564 409 49.7491 409 83.5338V777.391Z" fill="#D9D9D9"/>
<path d="M137 44C137 33.5066 145.531 25 156.054 25H241.946C252.469 25 261 33.5066 261 44C261 54.4934 252.469 63 241.946 63H156.054C145.531 63 137 54.4934 137 44Z" fill="#D9D9D9"/>
<path d="M276 46H280V50H276V46Z" fill="#D9D9D9"/>
<path d="M281 42H287V50H281V42Z" fill="#D9D9D9"/>
<path d="M288 38H294V50H288V38Z" fill="#D9D9D9"/>
<path d="M296 36H302V50H296V36Z" fill="#D9D9D9"/>
<path d="M316.027 45.4823L314.365 43.6981C315.183 42.8406 316.119 42.1837 317.175 41.7272C318.231 41.2708 319.339 41.0426 320.5 41.0426C321.661 41.0426 322.773 41.2744 323.835 41.738C324.898 42.2016 325.831 42.8688 326.635 43.7396L324.973 45.4823C324.379 44.8599 323.696 44.3794 322.924 44.0409C322.152 43.7023 321.344 43.5327 320.5 43.5322C319.656 43.5316 318.848 43.7012 318.076 44.0409C317.304 44.3806 316.621 44.861 316.027 45.4823ZM312.662 41.9554L311 40.2127C312.253 38.8712 313.702 37.8441 315.345 37.1315C316.988 36.4189 318.706 36.0629 320.5 36.0635C322.294 36.064 324.013 36.4203 325.656 37.1323C327.3 37.8443 328.748 38.8712 330 40.2127L328.337 41.9554C327.295 40.8628 326.098 40.0227 324.745 39.4352C323.392 38.8476 321.977 38.5536 320.5 38.553C319.023 38.5525 317.608 38.8465 316.254 39.4352C314.901 40.0238 313.704 40.8639 312.662 41.9554ZM320.5 50.171L317.709 47.225C318.079 46.8378 318.504 46.5404 318.986 46.3329C319.468 46.1255 319.973 46.0217 320.5 46.0217C321.027 46.0217 321.532 46.1255 322.014 46.3329C322.497 46.5404 322.922 46.8378 323.291 47.225L320.5 50.171Z" fill="#D9D9D9"/>
<path d="M243 44.5C243 48.6421 239.642 52 235.5 52C231.358 52 228 48.6421 228 44.5C228 40.3579 231.358 37 235.5 37C239.642 37 243 40.3579 243 44.5Z" fill="black"/>
<path d="M360.903 37.3457H344.272C343.537 37.3457 342.832 37.5484 342.312 37.9091C341.792 38.2698 341.5 38.7591 341.5 39.2693V46.9636C341.5 47.4738 341.792 47.963 342.312 48.3238C342.832 48.6845 343.537 48.8872 344.272 48.8872H360.903C361.638 48.8872 362.343 48.6845 362.863 48.3238C363.382 47.963 363.674 47.4738 363.674 46.9636V39.2693C363.674 38.7591 363.382 38.2698 362.863 37.9091C362.343 37.5484 361.638 37.3457 360.903 37.3457Z" fill="#D9D9D9"/>
<path d="M360.903 48.1658V48.8872H344.272V48.1658H360.903ZM362.982 46.9634V39.2695C362.982 39.0667 362.865 38.7778 362.478 38.5094C362.139 38.2744 361.664 38.1117 361.133 38.0748L360.903 38.067H344.272C343.649 38.067 343.083 38.2409 342.696 38.5094C342.31 38.7778 342.193 39.0667 342.193 39.2695V46.9634C342.193 47.1662 342.31 47.4551 342.696 47.7234C343.083 47.992 343.649 48.1658 344.272 48.1658V48.8872C343.583 48.8872 342.92 48.7093 342.412 48.3898L342.312 48.3236C341.792 47.9629 341.5 47.4735 341.5 46.9634V39.2695C341.5 38.7912 341.757 38.3312 342.217 37.9783L342.312 37.9093C342.832 37.5485 343.537 37.3457 344.272 37.3457H360.903C361.638 37.3457 362.343 37.5485 362.862 37.9093C363.382 38.27 363.674 38.7594 363.674 39.2695V46.9634C363.674 47.4735 363.382 47.9629 362.862 48.3236C362.343 48.6843 361.638 48.8872 360.903 48.8872V48.1658C361.526 48.1658 362.091 47.992 362.478 47.7234C362.865 47.4551 362.982 47.1662 362.982 46.9634Z" fill="#D9D9D9"/>
<path d="M360.798 37.3457H344.257C343.526 37.3457 342.706 37.3463 342.189 37.7071C341.672 38.0678 341.5 38.7591 341.5 39.2693V46.9636C341.5 47.4738 341.672 48.1665 342.189 48.5272C342.706 48.8879 343.526 48.8872 344.257 48.8872H360.798C361.529 48.8872 362.348 48.8879 362.865 48.5272C363.382 48.1665 363.555 47.4738 363.555 46.9636V39.2693C363.555 38.7591 363.382 38.0678 362.865 37.7071C362.348 37.3463 361.529 37.3457 360.798 37.3457ZM367.001 44.0782V42.1546C367.001 41.8996 366.855 41.6549 366.597 41.4746C366.338 41.2942 365.988 41.1929 365.622 41.1929V43.1164V45.04C365.988 45.04 366.338 44.9387 366.597 44.7583C366.855 44.5779 367.001 44.3333 367.001 44.0782Z" fill="#D9D9D9"/>
<path d="M362.224 38.9375C362.224 38.5006 362.082 38.0734 361.846 37.892C361.72 37.7959 361.514 37.7179 361.199 37.6746C361.044 37.6533 360.881 37.6427 360.711 37.6371L360.177 37.631H343.802C343.432 37.631 343.09 37.632 342.78 37.6746C342.466 37.7179 342.259 37.7959 342.134 37.892C341.897 38.0734 341.755 38.5006 341.755 38.9375V47.297L341.761 47.447C341.773 47.6013 341.803 47.7663 341.856 47.917C341.925 48.1154 342.02 48.257 342.134 48.344C342.259 48.4399 342.465 48.5177 342.78 48.5606C343.09 48.6029 343.432 48.6035 343.802 48.6035H360.177C360.547 48.6035 360.889 48.6029 361.199 48.5606C361.514 48.5177 361.72 48.4399 361.846 48.344C361.959 48.257 362.054 48.1154 362.123 47.917C362.193 47.7161 362.224 47.4897 362.224 47.297V38.9375ZM364.953 40.2432C365.425 40.2432 365.91 40.385 366.296 40.681C366.683 40.9774 367 41.4614 367 42.0725V44.162C367 44.773 366.683 45.2571 366.296 45.5534C365.91 45.8495 365.425 45.9912 364.953 45.9912C364.576 45.9912 364.271 45.6402 364.271 45.2075V41.027C364.271 40.5942 364.576 40.2432 364.953 40.2432ZM363.589 47.297C363.589 47.9681 363.389 49.0455 362.602 49.6482C362.216 49.9443 361.76 50.062 361.36 50.1167C360.956 50.1719 360.53 50.171 360.177 50.171H343.802C343.449 50.171 343.023 50.1719 342.619 50.1167C342.219 50.062 341.763 49.9443 341.377 49.6482C340.688 49.1209 340.45 48.2304 340.401 47.5664L340.391 47.297V38.9375C340.391 38.2658 340.59 37.1903 341.377 36.5878C341.763 36.2919 342.218 36.1736 342.618 36.1186C343.023 36.0629 343.448 36.0635 343.802 36.0635H360.177C360.531 36.0635 360.956 36.0629 361.361 36.1186C361.761 36.1736 362.216 36.2919 362.602 36.5878C363.389 37.1903 363.589 38.2658 363.589 38.9375V47.297Z" fill="#D9D9D9"/>
<path d="M359.977 49C359.135 49 358.429 48.6667 357.857 48C357.286 47.3333 357 46.5088 357 45.5263C357 44.5088 357.286 43.6667 357.857 43C358.429 42.3333 359.135 42 359.977 42C360.88 42 361.602 42.3333 362.143 43C362.714 43.6667 363 44.5088 363 45.5263C363 46.5088 362.714 47.3333 362.143 48C361.602 48.6667 360.88 49 359.977 49Z" fill="#D9D9D9"/>
<path d="M351.481 49C350.779 49 350.19 48.6667 349.714 48C349.238 47.3333 349 46.5088 349 45.5263C349 44.5088 349.238 43.6667 349.714 43C350.19 42.3333 350.779 42 351.481 42C352.233 42 352.835 42.3333 353.286 43C353.762 43.6667 354 44.5088 354 45.5263C354 46.5088 353.762 47.3333 353.286 48C352.835 48.6667 352.233 49 351.481 49Z" fill="#D9D9D9"/>
<path d="M65 198.95C65 176.334 83.6026 158 106.55 158H300.45C323.397 158 342 176.334 342 198.95V390.05C342 412.666 323.397 431 300.45 431H106.55C83.6026 431 65 412.666 65 390.05V198.95Z" fill="#D9D9D9"/>
<path d="M301.358 394.712C114.919 426.709 260.432 372.321 260.432 319.316C260.432 291.622 217.606 262.309 177.354 252.034C200.831 354.388 108.097 523.628 108.097 287.336C105.926 249.153 140.565 242.642 177.354 252.034C173.817 236.614 167.643 222.713 158.117 211.944C99.0023 134.265 315 214.219 315 214.219C315 214.219 270.437 317.944 301.358 394.712Z" fill="black" stroke="black"/>
<path d="M10 211.588C22.5665 214.193 31.9999 225.162 32 238.3V365.7C31.9999 378.838 22.5664 389.806 10 392.411V211.588Z" fill="#D9D9D9" fill-opacity="0.5"/>
<path d="M398 211.588C385.434 214.193 376 225.162 376 238.3V365.7C376 378.838 385.434 389.806 398 392.411V211.588Z" fill="#D9D9D9" fill-opacity="0.5"/>
<rect x="138" y="823" width="134" height="5" rx="2.5" fill="#D9D9D9"/>
</svg>
