<svg width="409" height="846" viewBox="0 0 409 846" fill="none" xmlns="http://www.w3.org/2000/svg">
<path d="M397 155H9L9.30242 78.7161V71.1482L13.5362 52.6827L18.3749 41.4823L23.8184 33.0063L35.915 21.8058L45.8948 16.0543L59.2011 11.8163L68.8784 10.6054L337.122 10L350.73 12.7244L357.988 15.4489L365.246 19.3841L373.412 26.0438L380.065 33.0063L385.811 41.4823L390.649 52.0772L393.976 63.2777L395.79 71.4509L396.395 77.8079L397 85.0731V155Z" fill="#D9D9D9"/>
<path d="M396.791 91.6689C396.791 58.9238 386.263 38.8484 373.19 27.0291C360.098 15.1936 344.389 11.5778 333.945 11.8762L333.935 11.8768H333.924C270.756 11.373 130.715 10.668 75.8417 11.8768C48.5882 12.4771 32.021 23.794 22.3467 37.6489C12.6507 51.5351 9.84611 68.0212 10.2453 78.9523V237.347L10.3817 266.754C11.08 422.332 11.9833 698.576 10.8498 757.522C10.2492 788.76 22.7759 808.27 38.6362 820.004C54.5281 831.761 73.8123 835.741 86.7106 835.791H313.377C345.259 835.791 365.771 824.769 378.479 811.05C391.197 797.319 396.139 780.844 396.791 769.884V91.6689ZM398 769.92L397.999 769.938C397.337 781.142 392.304 797.904 379.365 811.871C366.41 825.858 345.567 837 313.377 837H86.7059C73.6128 836.949 54.0611 832.919 37.9172 820.976C21.7417 809.009 9.03269 789.127 9.64089 757.498C10.8496 694.641 9.74157 384.551 9.03644 237.353V78.9747C8.63434 67.842 11.4842 51.0945 21.3557 36.957C31.2555 22.7789 48.1847 11.2764 75.8152 10.6678C130.706 9.45869 270.747 10.1635 333.917 10.6672C344.628 10.3626 360.65 14.0626 374.001 26.1324C387.372 38.2205 398 58.646 398 91.6689V769.92Z" fill="#D9D9D9"/>
<path d="M407.792 83.5338C407.792 50.0373 396.722 29.4972 382.969 17.4012C369.196 5.28764 352.666 1.58528 341.672 1.89086H341.651C275.225 1.37551 127.961 0.654305 70.2566 1.89086C41.5809 2.50536 24.1496 14.0908 13.9734 28.2688C3.77555 42.4769 0.826636 59.3429 1.24644 70.5244L1.24703 70.5356V232.564L1.39039 262.647C2.12468 421.805 3.07381 704.404 1.88184 764.707C1.25022 796.662 14.422 816.625 31.1081 828.634C47.8268 840.667 68.1149 844.741 81.6868 844.792H320.044C353.584 844.792 375.163 833.511 388.532 819.471C401.91 805.421 407.107 788.564 407.792 777.353V83.5338ZM409 777.391L408.999 777.41C408.303 788.873 403.01 806.018 389.407 820.304C375.788 834.607 353.881 846 320.044 846H81.6821C67.9221 845.948 47.3712 841.828 30.4019 829.615C13.4 817.378 0.0345571 797.042 0.67416 764.684C1.94522 700.38 0.780254 383.155 0.0387552 232.57V70.5698L0.0216459 70.032C-0.293159 58.6451 2.76817 41.8086 12.9917 27.5647C23.3991 13.0647 41.1917 1.30545 70.2306 0.683155C127.951 -0.553763 275.216 0.167269 341.644 0.682566C352.896 0.37107 369.734 4.1527 383.767 16.4948C397.822 28.8564 409 49.7491 409 83.5338V777.391Z" fill="#D9D9D9"/>
<path d="M137 44C137 33.5066 145.531 25 156.054 25H241.946C252.469 25 261 33.5066 261 44C261 54.4934 252.469 63 241.946 63H156.054C145.531 63 137 54.4934 137 44Z" fill="black"/>
<path d="M34 199C34 189.059 42.147 181 52.1967 181H126.803C136.853 181 145 189.059 145 199C145 208.941 136.853 217 126.803 217H52.1967C42.1469 217 34 208.941 34 199Z" fill="#D9D9D9"/>
<path d="M266.878 215.8V217H184.122V215.8H266.878ZM283.792 199C283.792 189.722 276.219 182.2 266.878 182.2H184.122C174.781 182.2 167.208 189.722 167.208 199C167.208 208.278 174.781 215.8 184.122 215.8V217C174.113 217 166 208.941 166 199C166 189.059 174.113 181 184.122 181H266.878L267.346 181.006C277.138 181.252 285 189.214 285 199C285 208.786 277.138 216.748 267.346 216.994L266.878 217V215.8C276.219 215.8 283.792 208.278 283.792 199Z" fill="#D9D9D9"/>
<path d="M276 46H280V50H276V46Z" fill="black"/>
<path d="M281 42H287V50H281V42Z" fill="black"/>
<path d="M288 38H294V50H288V38Z" fill="black"/>
<path d="M296 36H302V50H296V36Z" fill="black"/>
<path d="M316.027 45.4813L314.365 43.6972C315.183 42.8396 316.119 42.1827 317.175 41.7263C318.231 41.2698 319.339 41.0416 320.5 41.0416C321.661 41.0416 322.773 41.2734 323.835 41.737C324.898 42.2007 325.831 42.8679 326.635 43.7387L324.973 45.4813C324.379 44.859 323.696 44.3785 322.924 44.0399C322.152 43.7013 321.344 43.5317 320.5 43.5312C319.656 43.5306 318.848 43.7002 318.076 44.0399C317.304 44.3796 316.621 44.8601 316.027 45.4813ZM312.662 41.9545L311 40.2118C312.253 38.8702 313.702 37.8431 315.345 37.1305C316.988 36.418 318.706 36.0619 320.5 36.0625C322.294 36.0631 324.013 36.4193 325.656 37.1314C327.3 37.8434 328.748 38.8702 330 40.2118L328.337 41.9545C327.295 40.8618 326.098 40.0217 324.745 39.4342C323.392 38.8467 321.977 38.5526 320.5 38.5521C319.023 38.5515 317.608 38.8456 316.254 39.4342C314.901 40.0228 313.704 40.8629 312.662 41.9545ZM320.5 50.17L317.709 47.224C318.079 46.8368 318.504 46.5394 318.986 46.332C319.468 46.1245 319.973 46.0208 320.5 46.0208C321.027 46.0208 321.532 46.1245 322.014 46.332C322.497 46.5394 322.922 46.8368 323.291 47.224L320.5 50.17Z" fill="black"/>
<path d="M241.8 44.5C241.8 41.0206 238.979 38.2 235.5 38.2C232.021 38.2 229.2 41.0206 229.2 44.5C229.2 47.9794 232.021 50.8 235.5 50.8V52C231.358 52 228 48.6421 228 44.5C228 40.3579 231.358 37 235.5 37C239.642 37 243 40.3579 243 44.5C243 48.6421 239.642 52 235.5 52V50.8C238.979 50.8 241.8 47.9794 241.8 44.5Z" fill="#D9D9D9"/>
<path d="M360.903 37.3438H344.272C343.537 37.3438 342.832 37.5464 342.312 37.9072C341.792 38.2679 341.5 38.7572 341.5 39.2673V46.9616C341.5 47.4718 341.792 47.9611 342.312 48.3218C342.832 48.6826 343.537 48.8852 344.272 48.8852H360.903C361.638 48.8852 362.343 48.6826 362.863 48.3218C363.382 47.9611 363.674 47.4718 363.674 46.9616V39.2673C363.674 38.7572 363.382 38.2679 362.863 37.9072C362.343 37.5464 361.638 37.3438 360.903 37.3438Z" fill="black"/>
<path d="M360.903 48.1639V48.8852H344.272V48.1639H360.903ZM362.982 46.9614V39.2676C362.982 39.0647 362.865 38.7758 362.478 38.5075C362.139 38.2725 361.664 38.1098 361.133 38.0728L360.903 38.0651H344.272C343.649 38.0651 343.083 38.2389 342.696 38.5075C342.31 38.7758 342.193 39.0647 342.193 39.2676V46.9614C342.193 47.1643 342.31 47.4531 342.696 47.7215C343.083 47.9901 343.649 48.1639 344.272 48.1639V48.8852C343.583 48.8852 342.92 48.7073 342.412 48.3879L342.312 48.3217C341.792 47.9609 341.5 47.4716 341.5 46.9614V39.2676C341.5 38.7892 341.757 38.3292 342.217 37.9763L342.312 37.9073C342.832 37.5466 343.537 37.3438 344.272 37.3438H360.903C361.638 37.3438 362.343 37.5466 362.862 37.9073C363.382 38.268 363.674 38.7574 363.674 39.2676V46.9614C363.674 47.4716 363.382 47.9609 362.862 48.3217C362.343 48.6824 361.638 48.8852 360.903 48.8852V48.1639C361.526 48.1639 362.091 47.9901 362.478 47.7215C362.865 47.4531 362.982 47.1643 362.982 46.9614Z" fill="black"/>
<path d="M360.798 37.3438H344.257C343.526 37.3438 342.706 37.3444 342.189 37.7051C341.672 38.0659 341.5 38.7572 341.5 39.2673V46.9616C341.5 47.4718 341.672 48.1645 342.189 48.5253C342.706 48.886 343.526 48.8852 344.257 48.8852H360.798C361.529 48.8852 362.348 48.886 362.865 48.5253C363.382 48.1645 363.555 47.4718 363.555 46.9616V39.2673C363.555 38.7572 363.382 38.0659 362.865 37.7051C362.348 37.3444 361.529 37.3438 360.798 37.3438ZM367.001 44.0763V42.1527C367.001 41.8976 366.855 41.653 366.597 41.4726C366.338 41.2922 365.988 41.1909 365.622 41.1909V43.1145V45.0381C365.988 45.0381 366.338 44.9367 366.597 44.7564C366.855 44.576 367.001 44.3314 367.001 44.0763Z" fill="black"/>
<path d="M362.224 38.9365C362.224 38.4996 362.082 38.0724 361.846 37.891C361.72 37.7949 361.514 37.7169 361.199 37.6736C361.044 37.6523 360.881 37.6417 360.711 37.6361L360.177 37.63H343.802C343.432 37.63 343.09 37.631 342.78 37.6736C342.466 37.7169 342.259 37.7949 342.134 37.891C341.897 38.0724 341.755 38.4996 341.755 38.9365V47.296L341.761 47.446C341.773 47.6003 341.803 47.7653 341.856 47.916C341.925 48.1144 342.02 48.256 342.134 48.3431C342.259 48.4389 342.465 48.5167 342.78 48.5597C343.09 48.6019 343.432 48.6025 343.802 48.6025H360.177C360.547 48.6025 360.889 48.6019 361.199 48.5597C361.514 48.5167 361.72 48.4389 361.846 48.3431C361.959 48.256 362.054 48.1144 362.123 47.916C362.193 47.7152 362.224 47.4888 362.224 47.296V38.9365ZM364.953 40.2423C365.425 40.2423 365.91 40.384 366.296 40.6801C366.683 40.9764 367 41.4605 367 42.0715V44.161C367 44.7721 366.683 45.2561 366.296 45.5525C365.91 45.8485 365.425 45.9903 364.953 45.9903C364.576 45.9903 364.271 45.6393 364.271 45.2065V41.026C364.271 40.5933 364.576 40.2423 364.953 40.2423ZM363.589 47.296C363.589 47.9671 363.389 49.0446 362.602 49.6473C362.216 49.9433 361.76 50.0611 361.36 50.1157C360.956 50.1709 360.53 50.17 360.177 50.17H343.802C343.449 50.17 343.023 50.1709 342.619 50.1157C342.219 50.0611 341.763 49.9433 341.377 49.6473C340.688 49.1199 340.45 48.2294 340.401 47.5654L340.391 47.296V38.9365C340.391 38.2648 340.59 37.1893 341.377 36.5868C341.763 36.291 342.218 36.1727 342.618 36.1176C343.023 36.0619 343.448 36.0625 343.802 36.0625H360.177C360.531 36.0625 360.956 36.0619 361.361 36.1176C361.761 36.1727 362.216 36.291 362.602 36.5868C363.389 37.1893 363.589 38.2648 363.589 38.9365V47.296Z" fill="black"/>
<path d="M369.037 620.398C368.184 620.398 367.464 620.105 366.877 619.518C366.317 618.932 366.037 618.225 366.037 617.398C366.037 616.545 366.317 615.838 366.877 615.278C367.464 614.692 368.184 614.398 369.037 614.398C369.917 614.398 370.637 614.692 371.197 615.278C371.757 615.838 372.037 616.545 372.037 617.398C372.037 618.225 371.757 618.932 371.197 619.518C370.637 620.105 369.917 620.398 369.037 620.398Z" fill="#D9D9D9"/>
<path d="M359.818 620.398C358.965 620.398 358.245 620.105 357.658 619.518C357.098 618.932 356.818 618.225 356.818 617.398C356.818 616.545 357.098 615.838 357.658 615.278C358.245 614.692 358.965 614.398 359.818 614.398C360.698 614.398 361.418 614.692 361.978 615.278C362.538 615.838 362.818 616.545 362.818 617.398C362.818 618.225 362.538 618.932 361.978 619.518C361.418 620.105 360.698 620.398 359.818 620.398Z" fill="#D9D9D9"/>
<path d="M350.6 620.398C349.746 620.398 349.026 620.105 348.44 619.518C347.88 618.932 347.6 618.225 347.6 617.398C347.6 616.545 347.88 615.838 348.44 615.278C349.026 614.692 349.746 614.398 350.6 614.398C351.48 614.398 352.2 614.692 352.76 615.278C353.32 615.838 353.6 616.545 353.6 617.398C353.6 618.225 353.32 618.932 352.76 619.518C352.2 620.105 351.48 620.398 350.6 620.398Z" fill="#D9D9D9"/>
<path d="M369.037 536C368.184 536 367.464 535.707 366.877 535.12C366.317 534.533 366.037 533.827 366.037 533C366.037 532.147 366.317 531.44 366.877 530.88C367.464 530.293 368.184 530 369.037 530C369.917 530 370.637 530.293 371.197 530.88C371.757 531.44 372.037 532.147 372.037 533C372.037 533.827 371.757 534.533 371.197 535.12C370.637 535.707 369.917 536 369.037 536Z" fill="#D9D9D9"/>
<path d="M359.818 536C358.965 536 358.245 535.707 357.658 535.12C357.098 534.533 356.818 533.827 356.818 533C356.818 532.147 357.098 531.44 357.658 530.88C358.245 530.293 358.965 530 359.818 530C360.698 530 361.418 530.293 361.978 530.88C362.538 531.44 362.818 532.147 362.818 533C362.818 533.827 362.538 534.533 361.978 535.12C361.418 535.707 360.698 536 359.818 536Z" fill="#D9D9D9"/>
<path d="M350.6 536C349.746 536 349.026 535.707 348.44 535.12C347.88 534.533 347.6 533.827 347.6 533C347.6 532.147 347.88 531.44 348.44 530.88C349.026 530.293 349.746 530 350.6 530C351.48 530 352.2 530.293 352.76 530.88C353.32 531.44 353.6 532.147 353.6 533C353.6 533.827 353.32 534.533 352.76 535.12C352.2 535.707 351.48 536 350.6 536Z" fill="#D9D9D9"/>
<path d="M369.037 454C368.184 454 367.464 453.707 366.877 453.12C366.317 452.533 366.037 451.827 366.037 451C366.037 450.147 366.317 449.44 366.877 448.88C367.464 448.293 368.184 448 369.037 448C369.917 448 370.637 448.293 371.197 448.88C371.757 449.44 372.037 450.147 372.037 451C372.037 451.827 371.757 452.533 371.197 453.12C370.637 453.707 369.917 454 369.037 454Z" fill="#D9D9D9"/>
<path d="M359.818 454C358.965 454 358.245 453.707 357.658 453.12C357.098 452.533 356.818 451.827 356.818 451C356.818 450.147 357.098 449.44 357.658 448.88C358.245 448.293 358.965 448 359.818 448C360.698 448 361.418 448.293 361.978 448.88C362.538 449.44 362.818 450.147 362.818 451C362.818 451.827 362.538 452.533 361.978 453.12C361.418 453.707 360.698 454 359.818 454Z" fill="#D9D9D9"/>
<path d="M350.6 454C349.746 454 349.026 453.707 348.44 453.12C347.88 452.533 347.6 451.827 347.6 451C347.6 450.147 347.88 449.44 348.44 448.88C349.026 448.293 349.746 448 350.6 448C351.48 448 352.2 448.293 352.76 448.88C353.32 449.44 353.6 450.147 353.6 451C353.6 451.827 353.32 452.533 352.76 453.12C352.2 453.707 351.48 454 350.6 454Z" fill="#D9D9D9"/>
<path d="M369.037 367C368.184 367 367.464 366.707 366.877 366.12C366.317 365.533 366.037 364.827 366.037 364C366.037 363.147 366.317 362.44 366.877 361.88C367.464 361.293 368.184 361 369.037 361C369.917 361 370.637 361.293 371.197 361.88C371.757 362.44 372.037 363.147 372.037 364C372.037 364.827 371.757 365.533 371.197 366.12C370.637 366.707 369.917 367 369.037 367Z" fill="#D9D9D9"/>
<path d="M359.818 367C358.965 367 358.245 366.707 357.658 366.12C357.098 365.533 356.818 364.827 356.818 364C356.818 363.147 357.098 362.44 357.658 361.88C358.245 361.293 358.965 361 359.818 361C360.698 361 361.418 361.293 361.978 361.88C362.538 362.44 362.818 363.147 362.818 364C362.818 364.827 362.538 365.533 361.978 366.12C361.418 366.707 360.698 367 359.818 367Z" fill="#D9D9D9"/>
<path d="M350.6 367C349.746 367 349.026 366.707 348.44 366.12C347.88 365.533 347.6 364.827 347.6 364C347.6 363.147 347.88 362.44 348.44 361.88C349.026 361.293 349.746 361 350.6 361C351.48 361 352.2 361.293 352.76 361.88C353.32 362.44 353.6 363.147 353.6 364C353.6 364.827 353.32 365.533 352.76 366.12C352.2 366.707 351.48 367 350.6 367Z" fill="#D9D9D9"/>
<path d="M369.037 282C368.184 282 367.464 281.707 366.877 281.12C366.317 280.533 366.037 279.827 366.037 279C366.037 278.147 366.317 277.44 366.877 276.88C367.464 276.293 368.184 276 369.037 276C369.917 276 370.637 276.293 371.197 276.88C371.757 277.44 372.037 278.147 372.037 279C372.037 279.827 371.757 280.533 371.197 281.12C370.637 281.707 369.917 282 369.037 282Z" fill="#D9D9D9"/>
<path d="M359.818 282C358.965 282 358.245 281.707 357.658 281.12C357.098 280.533 356.818 279.827 356.818 279C356.818 278.147 357.098 277.44 357.658 276.88C358.245 276.293 358.965 276 359.818 276C360.698 276 361.418 276.293 361.978 276.88C362.538 277.44 362.818 278.147 362.818 279C362.818 279.827 362.538 280.533 361.978 281.12C361.418 281.707 360.698 282 359.818 282Z" fill="#D9D9D9"/>
<path d="M350.6 282C349.746 282 349.026 281.707 348.44 281.12C347.88 280.533 347.6 279.827 347.6 279C347.6 278.147 347.88 277.44 348.44 276.88C349.026 276.293 349.746 276 350.6 276C351.48 276 352.2 276.293 352.76 276.88C353.32 277.44 353.6 278.147 353.6 279C353.6 279.827 353.32 280.533 352.76 281.12C352.2 281.707 351.48 282 350.6 282Z" fill="#D9D9D9"/>
<path d="M369.037 704C368.184 704 367.464 703.707 366.877 703.12C366.317 702.533 366.037 701.827 366.037 701C366.037 700.147 366.317 699.44 366.877 698.88C367.464 698.293 368.184 698 369.037 698C369.917 698 370.637 698.293 371.197 698.88C371.757 699.44 372.037 700.147 372.037 701C372.037 701.827 371.757 702.533 371.197 703.12C370.637 703.707 369.917 704 369.037 704Z" fill="#D9D9D9"/>
<path d="M359.818 704C358.965 704 358.245 703.707 357.658 703.12C357.098 702.533 356.818 701.827 356.818 701C356.818 700.147 357.098 699.44 357.658 698.88C358.245 698.293 358.965 698 359.818 698C360.698 698 361.418 698.293 361.978 698.88C362.538 699.44 362.818 700.147 362.818 701C362.818 701.827 362.538 702.533 361.978 703.12C361.418 703.707 360.698 704 359.818 704Z" fill="#D9D9D9"/>
<path d="M350.6 704C349.746 704 349.026 703.707 348.44 703.12C347.88 702.533 347.6 701.827 347.6 701C347.6 700.147 347.88 699.44 348.44 698.88C349.026 698.293 349.746 698 350.6 698C351.48 698 352.2 698.293 352.76 698.88C353.32 699.44 353.6 700.147 353.6 701C353.6 701.827 353.32 702.533 352.76 703.12C352.2 703.707 351.48 704 350.6 704Z" fill="#D9D9D9"/>
<path d="M397 155V156H10V155H397Z" fill="#D9D9D9"/>
<path d="M357.823 102.001C360.118 102.039 362.331 102.892 364.06 104.417C365.904 106.043 367.059 108.311 367.289 110.759C367.503 113.027 366.907 115.291 365.619 117.156L369.46 120.997L369.577 121.12C369.688 121.249 369.78 121.393 369.849 121.548C369.944 121.762 369.996 121.993 370 122.227C370.002 122.336 369.991 122.445 369.973 122.553C369.989 122.628 369.999 122.704 370 122.78C370.003 122.941 369.974 123.102 369.913 123.251C369.853 123.4 369.763 123.536 369.65 123.65C369.536 123.763 369.4 123.853 369.251 123.913C369.102 123.974 368.941 124.003 368.78 124C368.704 123.999 368.628 123.989 368.553 123.973C368.445 123.991 368.336 124.002 368.227 124C367.993 123.996 367.762 123.944 367.548 123.849C367.341 123.756 367.154 123.624 366.997 123.46L363.156 119.619C361.291 120.907 359.027 121.503 356.759 121.289C354.311 121.059 352.043 119.904 350.417 118.06C348.892 116.331 348.039 114.118 348.001 111.823V111.743C347.999 111.592 348 111.439 348.005 111.287C348.081 108.85 349.084 106.533 350.809 104.809C352.533 103.084 354.85 102.081 357.287 102.005C357.439 102 357.592 101.999 357.743 102.001H357.823ZM357.665 105.486C356.026 105.486 354.454 106.136 353.295 107.295C352.136 108.454 351.486 110.026 351.486 111.665C351.486 112.477 351.646 113.281 351.956 114.03C352.267 114.78 352.722 115.461 353.295 116.034C353.869 116.608 354.55 117.064 355.3 117.374C356.05 117.685 356.854 117.845 357.665 117.845C358.477 117.845 359.281 117.685 360.03 117.374C360.78 117.064 361.461 116.608 362.034 116.034C362.608 115.461 363.064 114.78 363.374 114.03C363.685 113.281 363.845 112.477 363.845 111.665C363.845 110.026 363.193 108.454 362.034 107.295C360.875 106.136 359.304 105.486 357.665 105.486Z" fill="black"/>
<path d="M34 268C34 263.029 38.0966 259 43.15 259H85.85C90.9034 259 95 263.029 95 268V310C95 314.971 90.9034 319 85.85 319H43.15C38.0966 319 34 314.971 34 310V268Z" fill="#D9D9D9"/>
<path d="M34 352C34 347.029 38.0966 343 43.15 343H85.85C90.9034 343 95 347.029 95 352V394C95 398.971 90.9034 403 85.85 403H43.15C38.0966 403 34 398.971 34 394V352Z" fill="#D9D9D9"/>
<path d="M34 437C34 432.029 38.0966 428 43.15 428H85.85C90.9034 428 95 432.029 95 437V479C95 483.971 90.9034 488 85.85 488H43.15C38.0966 488 34 483.971 34 479V437Z" fill="#D9D9D9"/>
<path d="M34 521C34 516.029 38.0966 512 43.15 512H85.85C90.9034 512 95 516.029 95 521V563C95 567.971 90.9034 572 85.85 572H43.15C38.0966 572 34 567.971 34 563V521Z" fill="#D9D9D9"/>
<path d="M34 605C34 600.029 38.0966 596 43.15 596H85.85C90.9034 596 95 600.029 95 605V647C95 651.971 90.9034 656 85.85 656H43.15C38.0966 656 34 651.971 34 647V605Z" fill="#D9D9D9"/>
<path d="M34 689C34 684.029 38.0966 680 43.15 680H85.85C90.9034 680 95 684.029 95 689V731C95 735.971 90.9034 740 85.85 740H43.15C38.0966 740 34 735.971 34 731V689Z" fill="#D9D9D9"/>
<path d="M60.2655 300.1C69.6079 313.06 51.9812 318.1 42 319H57.2712H95L97 281L82.7232 265V279.4C82.7232 286.36 68.6497 275.5 57.2712 267.1C59.6667 269.1 67.3921 282.16 70.7458 292C74.0994 301.84 52.8795 284.3 42.8983 277.6C44.7947 279.7 50.9232 287.14 60.2655 300.1Z" fill="black"/>
<path d="M55.7684 447.914L42.2938 441.864H71.339L79.7232 447.914H92V445.796L81.5198 443.679V434H73.435H53.3729H39V445.796L46.1864 451.241H42.2938H39V456.685L46.1864 459.105H50.3785V471.506H47.6836H42.2938V473.623L47.6836 483L53.3729 478.16H55.7684L58.7627 479.975L61.7571 481.488H73.435L75.2316 478.16H81.5198H88.1073L85.4124 475.136V467.877V456.685L79.7232 453.056H73.435V467.877L67.4463 469.994L58.7627 463.642L63.5537 455.173V443.679L55.7684 447.914Z" fill="black"/>
<path d="M85.9998 563.997C45 570.999 76.9998 559.097 76.9998 547.497C76.9998 541.436 67.582 535.021 58.7301 532.772C63.8929 555.172 43.4998 592.209 43.4998 540.498C43.0223 532.142 50.6398 530.717 58.7301 532.772C57.9524 529.398 56.5946 526.356 54.4998 523.999C41.4998 506.999 88.9998 524.497 88.9998 524.497C88.9998 524.497 79.1999 547.196 85.9998 563.997Z" fill="black"/>
<path d="M85.9998 563.997C45 570.999 76.9998 559.097 76.9998 547.497C76.9998 535.897 42.4998 522.999 43.4998 540.498C43.4998 599.999 70.5 541.999 54.4998 523.999C41.4998 506.999 88.9998 524.497 88.9998 524.497C88.9998 524.497 79.1999 547.196 85.9998 563.997Z" stroke="black"/>
<path d="M43.4991 624.5C40.6991 632.1 42.3325 643 43.4991 647.5C44.0876 650.299 50.4109 650.666 53.499 650.5C99.999 656.5 84.999 616 81.499 606C78.699 598 56.3324 604.666 45.499 609C45.9991 611 46.2991 616.9 43.4991 624.5Z" fill="black" stroke="black"/>
<circle cx="64.5" cy="709.5" r="5.5" fill="black"/>
<rect x="138" y="823" width="134" height="5" rx="2.5" fill="#D9D9D9"/>
<rect x="40" y="350" width="27" height="27" fill="black"/>
</svg>
