<svg width="35" height="40" viewBox="0 0 35 40" fill="none" xmlns="http://www.w3.org/2000/svg">
<path d="M16.5482 0.966527C16.8454 0.0406789 18.1553 0.0407138 18.4525 0.966577L21.7706 11.3056C21.9034 11.7194 22.2882 12 22.7228 12H33.2079C34.1598 12 34.5733 13.2042 33.8222 13.789L27.4119 18.7802C26.9267 19.158 26.8942 19.8801 27.3435 20.2999L34.2676 26.7693C34.9306 27.3888 34.4923 28.5 33.5849 28.5H22.6967C22.2748 28.5 21.8983 28.7647 21.7556 29.1617L18.4414 38.3822C18.1242 39.2645 16.8765 39.2645 16.5593 38.3822L13.2444 29.1617C13.1017 28.7647 12.7252 28.5 12.3034 28.5H1.4159C0.508536 28.5 0.0701881 27.3888 0.733188 26.7693L7.65728 20.2999C8.10662 19.8801 8.07414 19.158 7.58892 18.7802L1.17858 13.789C0.427508 13.2042 0.841042 12 1.79294 12H12.2772C12.7118 12 13.0966 11.7194 13.2294 11.3056L16.5482 0.966527Z" fill="#D9D9D9"/>
</svg>
